<svg xmlns="http://www.w3.org/2000/svg" xmlns:xlink="http://www.w3.org/1999/xlink" viewBox="0,0,256,256" width="24px" height="24px" fill-rule="nonzero"><g fill-opacity="0.70196" fill="#ffffff" fill-rule="nonzero" stroke="none" stroke-width="1" stroke-linecap="butt" stroke-linejoin="miter" stroke-miterlimit="10" stroke-dasharray="" stroke-dashoffset="0" font-family="none" font-weight="none" font-size="none" text-anchor="none" style="mix-blend-mode: normal"><g transform="scale(10.66667,10.66667)"><path d="M1.993,12c0,-5.52 4.481,-10 10.003,-10c5.52,0 10.001,4.48 10.001,10c0,4.48 -2.949,8.267 -7.007,9.547l0.001,-5.507c0,-0.133 -0.009,-0.266 -0.025,-0.386l-0.041,-0.24c1.739,-0.734 3.067,-2.146 3.067,-3.92c0,-1 -0.433,-1.893 -1.109,-2.613l0.035,-0.227c0.076,-0.641 0.091,-1.294 0.04,-1.96c-0.036,-0.48 -0.521,-0.813 -0.984,-0.654c-0.68,0.227 -1.344,0.52 -1.976,0.921l-0.316,0.227l-0.139,-0.028c-0.496,-0.094 -1.016,-0.147 -1.552,-0.147c-0.537,0 -1.059,0.053 -1.556,0.147l-0.137,0.027l-0.316,-0.227c-0.632,-0.4 -1.295,-0.693 -1.973,-0.92c-0.463,-0.16 -0.947,0.174 -0.984,0.653c-0.052,0.667 -0.037,1.32 0.037,1.96l0.035,0.227c-0.676,0.72 -1.107,1.613 -1.107,2.613c0,1.786 1.319,3.2 3.067,3.92l-0.033,0.24c-0.015,0.12 -0.023,0.253 -0.023,0.386v0.454h-0.756c-0.123,0 -0.225,-0.027 -0.321,-0.067c-0.101,-0.04 -0.208,-0.12 -0.325,-0.227c-0.261,-0.24 -0.512,-0.587 -0.771,-0.906c-0.261,-0.32 -0.733,-0.374 -1.055,-0.107c-0.323,0.253 -0.372,0.72 -0.112,1.053c0.127,0.146 0.265,0.333 0.409,0.507c0.148,0.187 0.319,0.387 0.516,0.56c0.197,0.187 0.431,0.36 0.709,0.48c0.283,0.134 0.599,0.214 0.95,0.214h0.756v3.547c-4.062,-1.28 -7.008,-5.067 -7.008,-9.547z"></path></g></g></svg>